<?xml version="1.0" standalone="no"?>
<!DOCTYPE svg PUBLIC "-//W3C//DTD SVG 20010904//EN"
 "http://www.w3.org/TR/2001/REC-SVG-20010904/DTD/svg10.dtd">
<svg version="1.0" xmlns="http://www.w3.org/2000/svg"
 width="1280.000000pt" height="1266.000000pt" viewBox="0 0 1280.000000 1266.000000"
 preserveAspectRatio="xMidYMid meet">
<metadata>
Created by potrace 1.15, written by Peter Selinger 2001-2017
</metadata>
<g transform="translate(0.000000,1266.000000) scale(0.100000,-0.100000)"
fill="#000000" stroke="none">
<path d="M8965 9028 c-1969 -1998 -3949 -4002 -4400 -4454 -818 -817 -821
-821 -930 -886 -61 -36 -141 -77 -180 -91 -38 -14 -100 -39 -137 -56 -37 -17
-76 -31 -85 -31 -10 0 -47 -9 -83 -20 -36 -11 -96 -26 -135 -34 -182 -37 -365
-78 -410 -92 -134 -43 -384 -207 -589 -386 -55 -49 -108 -88 -116 -88 -9 0
-34 19 -55 41 -22 23 -83 77 -135 122 -118 99 -284 253 -449 416 -95 93 -142
131 -193 157 -37 19 -78 34 -90 34 -12 0 -49 -19 -81 -41 -52 -37 -61 -40 -84
-30 -36 16 -93 3 -128 -29 -16 -15 -45 -35 -62 -44 -18 -9 -47 -29 -65 -45
-18 -15 -85 -55 -148 -89 -63 -34 -142 -82 -175 -106 -33 -25 -63 -46 -67 -46
-3 0 -43 -46 -88 -102 l-82 -103 7 -49 c3 -26 13 -59 22 -72 8 -13 81 -85 162
-160 80 -76 209 -196 286 -269 77 -72 181 -168 230 -212 50 -45 106 -97 125
-118 19 -20 85 -78 145 -128 61 -50 155 -134 210 -186 55 -53 269 -242 475
-421 603 -523 801 -702 878 -793 41 -48 90 -101 110 -118 110 -94 413 -394
447 -442 l40 -57 100 0 c86 0 113 4 195 32 112 37 247 121 360 225 41 38 102
90 135 117 69 54 135 131 183 209 40 66 37 87 -19 151 -38 43 -39 46 -39 119
l0 76 -295 283 c-286 274 -397 378 -517 483 l-57 50 105 140 c208 276 270 379
384 646 60 139 79 199 125 389 29 124 62 246 74 272 92 213 343 534 534 680
72 55 171 144 394 355 45 43 156 152 246 243 151 152 6170 6310 7684 7860 l73
75 -128 128 -128 128 -3579 -3633z"/>
</g>
</svg>
